<?xml version="1.0" standalone="no"?>
<!DOCTYPE svg PUBLIC "-//W3C//DTD SVG 20010904//EN"
 "http://www.w3.org/TR/2001/REC-SVG-20010904/DTD/svg10.dtd">
<svg version="1.0" xmlns="http://www.w3.org/2000/svg"
 width="359.000000pt" height="359.000000pt" viewBox="0 0 359.000000 359.000000"
 preserveAspectRatio="xMidYMid meet">
<metadata>
Created by potrace 1.11, written by Peter Selinger 2001-2013
</metadata>
<g transform="translate(0.000000,359.000000) scale(0.100000,-0.100000)"
fill="#000000" stroke="none">
<path d="M1490 3531 c-834 -152 -1439 -870 -1440 -1712 0 -428 158 -844 448
-1175 199 -227 493 -416 767 -494 61 -17 130 -38 155 -47 55 -18 328 -31 354
-16 13 7 -12 12 -93 17 -195 12 -383 57 -556 132 l-89 39 38 6 c37 6 66 30 45
38 -6 1 -21 14 -34 27 -24 24 -65 33 -65 14 0 -5 7 -10 15 -10 8 0 15 -6 15
-14 0 -9 -14 -15 -39 -18 -29 -2 -37 0 -30 8 5 6 6 19 3 29 -4 10 -1 20 6 25
11 7 10 13 -3 34 -9 14 -17 41 -17 61 0 19 -4 35 -10 35 -5 0 -32 21 -61 46
-28 25 -67 53 -87 62 -20 9 -47 27 -60 40 -14 12 -33 22 -42 22 -19 0 -113 81
-224 192 -37 38 -80 75 -95 83 -37 19 -101 91 -101 113 0 10 -12 22 -28 28
-19 7 -33 24 -45 54 l-17 43 36 -41 c20 -23 43 -42 52 -42 20 0 97 -38 140
-69 17 -11 39 -21 50 -21 11 0 25 -7 32 -15 7 -8 16 -15 21 -15 9 0 24 -11 81
-62 17 -15 39 -30 48 -33 9 -3 24 -21 33 -40 9 -19 23 -35 32 -35 8 0 15 -4
15 -8 0 -4 21 -30 48 -58 26 -27 55 -61 65 -76 10 -16 23 -28 30 -28 7 0 28
-13 47 -30 19 -16 40 -30 45 -30 13 -1 56 -56 59 -74 3 -19 75 -106 88 -106 6
0 16 -7 23 -16 13 -19 54 -25 72 -11 8 6 35 -3 77 -23 62 -31 99 -36 100 -15
1 6 -9 11 -22 13 -12 2 -29 14 -38 27 -18 28 -95 70 -145 79 -41 7 -74 38 -84
79 -9 34 4 35 35 2 15 -16 34 -25 55 -25 40 0 50 9 27 26 -13 10 -14 15 -5 25
10 10 16 9 30 -4 10 -8 41 -20 68 -25 31 -6 40 -10 23 -11 -37 -1 -47 -21 -11
-21 16 0 33 -4 38 -9 24 -22 82 -31 149 -23 59 8 72 6 86 -8 18 -18 110 -37
110 -23 0 14 -34 30 -78 38 -23 4 -59 15 -79 25 -21 10 -58 21 -82 25 -54 9
-149 41 -167 56 -8 6 -11 15 -8 20 12 19 49 9 144 -41 9 -4 31 -11 50 -14 19
-4 53 -16 75 -26 22 -9 55 -21 74 -25 18 -4 55 -18 82 -32 39 -21 52 -23 63
-13 9 6 19 9 24 7 11 -8 33 70 36 129 1 39 9 59 33 89 29 37 31 43 23 85 -7
37 -6 47 8 58 15 12 18 8 23 -37 7 -51 -6 -110 -29 -133 -7 -7 -12 -21 -12
-33 0 -11 -6 -29 -14 -40 -7 -11 -17 -40 -21 -65 -4 -24 -12 -52 -18 -62 -9
-13 -8 -21 1 -30 9 -9 12 -9 12 0 0 18 24 14 42 -7 8 -10 22 -21 29 -23 11 -4
12 -9 1 -33 l-13 -28 -35 34 c-29 28 -36 31 -44 19 -14 -22 -12 -56 5 -70 20
-17 135 -26 135 -11 0 6 -7 14 -15 17 -19 8 -20 24 0 24 25 0 66 -23 62 -35
-5 -11 115 -4 170 10 13 3 23 1 23 -4 0 -6 -17 -13 -37 -16 -21 -3 -51 -12
-66 -20 -16 -8 -36 -15 -45 -15 -9 0 -25 -7 -36 -15 -16 -12 -11 -13 45 -9
118 10 134 12 171 22 l38 10 -20 -26 c-14 -17 -17 -29 -10 -36 5 -5 10 -20 10
-33 0 -32 14 -29 44 9 24 31 26 31 44 15 10 -9 22 -17 25 -17 12 0 8 49 -5 71
-11 17 -10 22 12 39 14 10 27 16 30 13 3 -3 -1 -8 -7 -10 -7 -3 -13 -11 -13
-20 0 -10 6 -12 23 -8 12 4 26 11 31 16 6 5 18 9 28 9 17 0 22 -9 19 -40 -1
-8 7 -20 17 -26 16 -10 17 -8 16 20 -1 17 -5 38 -8 47 -4 10 -3 20 3 24 6 3
11 2 11 -4 0 -6 9 -15 21 -21 31 -17 61 12 48 47 -13 35 -11 38 11 18 11 -10
20 -24 20 -32 0 -8 4 -12 9 -8 5 3 13 0 17 -7 5 -7 10 -4 16 11 7 19 11 21 23
11 20 -17 19 -1 -2 22 -24 27 -7 35 21 9 16 -15 26 -19 31 -11 3 6 -4 19 -17
30 -13 11 -18 19 -12 20 6 0 17 -7 24 -15 14 -17 40 -20 40 -5 0 6 -4 10 -10
10 -5 0 -10 7 -10 15 0 20 19 19 42 -2 17 -15 18 -15 18 0 0 10 5 17 11 17 5
0 8 4 5 9 -3 4 -16 6 -30 4 -27 -6 -44 13 -27 30 8 8 14 8 23 -1 17 -17 28
-15 28 4 0 10 6 14 15 10 17 -6 21 9 5 19 -15 9 -12 25 5 25 8 0 15 4 15 9 0
5 -7 14 -15 21 -22 19 -18 32 6 19 16 -8 20 -17 15 -39 -5 -28 6 -40 40 -40
11 0 13 7 8 28 -6 23 -5 25 8 14 13 -10 18 -9 28 3 10 13 10 19 -4 33 -9 10
-16 22 -16 25 0 13 28 7 41 -9 12 -14 14 -14 20 3 4 11 0 23 -10 30 -14 11
-13 12 7 13 18 0 22 6 22 31 0 23 -5 32 -21 36 -16 4 -20 12 -16 30 3 15 -1
27 -9 30 -22 8 -16 25 6 18 24 -8 27 10 5 32 -15 15 -12 33 6 33 5 0 13 -8 16
-17 4 -10 15 -27 25 -37 14 -15 15 -23 6 -33 -6 -8 -18 -11 -25 -8 -8 3 -13 0
-11 -6 4 -13 5 -13 41 -4 15 4 27 12 27 19 0 6 4 17 9 25 8 12 12 12 25 2 8
-7 20 -10 27 -6 8 6 7 10 -2 16 -11 7 -11 9 2 9 23 0 49 32 32 37 -23 8 -14
19 30 38 46 20 67 42 60 62 -3 7 0 13 6 13 24 0 55 44 52 73 -1 15 4 39 13 52
25 38 29 135 5 135 -5 0 -9 -4 -9 -9 0 -6 -14 -30 -30 -55 -17 -24 -38 -61
-48 -83 -23 -50 -99 -153 -114 -153 -7 0 -32 -8 -56 -17 -41 -15 -43 -18 -38
-46 5 -26 4 -28 -9 -17 -9 7 -14 19 -11 26 3 8 -10 31 -29 51 -19 21 -35 41
-35 45 0 4 -19 10 -43 13 -53 8 -124 -9 -154 -38 -21 -18 -23 -19 -23 -3 0 18
-22 46 -36 46 -4 0 -21 12 -36 27 -20 19 -28 37 -28 62 -1 158 -152 431 -307
554 -118 92 -251 156 -335 160 -32 2 -43 -2 -43 -13 0 -8 -13 -35 -30 -59 -22
-33 -31 -40 -33 -27 -5 27 -39 56 -57 50 -24 -10 -19 -20 41 -78 37 -36 55
-60 51 -71 -10 -23 -32 -18 -46 11 -11 24 -15 26 -56 20 -38 -6 -46 -4 -57 13
-14 22 -38 28 -38 10 0 -6 7 -17 15 -25 22 -22 18 -34 -9 -34 -14 0 -28 -5
-31 -10 -8 -13 -72 -7 -87 8 -7 7 -19 12 -28 12 -10 0 -15 10 -16 34 0 30 2
33 17 26 9 -5 22 -23 27 -40 6 -16 16 -30 21 -30 15 0 14 13 -4 46 -8 16 -15
37 -15 48 0 15 -3 16 -15 6 -8 -7 -15 -8 -15 -3 0 12 33 43 46 43 6 0 8 15 6
34 -3 28 -7 33 -24 28 -17 -4 -19 -1 -16 23 3 25 -1 29 -42 40 -91 26 -95 27
-82 17 14 -10 3 -23 -30 -35 -15 -5 -18 0 -18 37 0 39 -3 45 -26 50 -15 4 -32
2 -37 -3 -6 -6 -18 -11 -26 -11 -11 0 -10 4 5 14 10 8 17 16 14 19 -20 18 -93
57 -106 57 -10 0 -14 5 -11 15 6 14 -44 65 -64 65 -5 0 -9 4 -9 10 0 5 -24 40
-53 78 -28 37 -65 96 -82 130 -22 46 -34 61 -47 58 -11 -3 -26 7 -38 24 l-20
29 21 6 c17 6 20 12 15 38 -3 18 -12 79 -20 136 -8 57 -17 105 -19 108 -3 2
-1 22 4 44 8 33 6 43 -11 61 -27 29 -25 41 5 34 25 -6 32 0 39 36 4 19 15 44
47 114 16 34 29 67 29 74 0 14 37 70 58 88 9 6 17 18 18 25 1 6 5 20 9 29 4
11 0 20 -15 28 -19 10 -26 8 -48 -14 -15 -14 -27 -38 -28 -53 -1 -16 -3 -31
-3 -35 -1 -12 -31 -10 -31 1 0 6 5 13 11 17 8 4 2 12 -15 21 -18 9 -26 20 -22
30 3 8 6 21 6 29 0 8 16 22 35 31 39 18 41 36 6 41 -30 5 -94 -44 -87 -66 3
-9 1 -24 -4 -32 -7 -11 -10 -3 -10 28 0 23 4 42 9 42 6 0 25 14 43 30 18 17
43 30 55 30 13 0 23 4 23 9 0 26 209 125 227 108 2 -3 -21 -18 -52 -32 -31
-15 -54 -29 -51 -32 2 -3 43 5 90 16 103 26 124 26 128 4 2 -10 6 -13 10 -8 3
6 2 20 -3 33 -7 18 -16 22 -48 22 -22 0 -42 4 -45 9 -10 16 178 57 299 66 123
8 160 15 143 26 -21 14 -144 8 -248 -10z m-740 -378 c0 -12 -33 -43 -46 -43
-8 0 -21 -11 -29 -24 -9 -13 -29 -30 -46 -36 -31 -13 -54 -44 -44 -60 3 -5 1
-18 -4 -29 -12 -22 -79 -66 -87 -58 -15 15 17 55 118 152 97 92 138 121 138
98z m180 -33 c0 -5 -4 -10 -9 -10 -5 0 -18 -3 -28 -6 -16 -5 -16 -4 1 10 23
18 36 20 36 6z m86 -57 c-10 -11 -37 -12 -30 -2 3 5 12 9 21 9 9 0 13 -3 9 -7z
m-106 -27 c0 -3 -4 -8 -10 -11 -5 -3 -10 -1 -10 4 0 6 5 11 10 11 6 0 10 -2
10 -4z m-105 -76 c3 -5 1 -10 -4 -10 -6 0 -11 5 -11 10 0 6 2 10 4 10 3 0 8
-4 11 -10z m108 -58 c9 -9 13 -23 9 -30 -6 -8 -13 -6 -25 8 -31 36 -15 57 16
22z m-433 -16 c0 -15 -18 -31 -26 -23 -7 7 7 37 17 37 5 0 9 -6 9 -14z m324
-7 c30 -23 32 -34 11 -55 -8 -9 -15 -25 -15 -37 -1 -20 -2 -20 -11 -4 -5 9
-19 17 -31 17 -16 0 -18 4 -12 18 4 9 8 32 8 50 -1 37 13 40 50 11z m-103 -44
c26 9 24 -5 -10 -52 -34 -47 -80 -85 -92 -77 -16 9 -10 24 10 24 21 0 25 9 36
75 9 51 28 79 33 46 3 -17 8 -20 23 -16z m-91 -35 c0 -11 -4 -20 -10 -20 -5 0
-10 9 -10 20 0 11 5 20 10 20 6 0 10 -9 10 -20z m-70 -50 c0 -5 -8 -14 -17
-19 -17 -9 -16 -11 5 -26 12 -9 20 -20 17 -25 -3 -5 -1 -11 5 -15 16 -10 1
-25 -24 -25 -18 0 -25 7 -29 29 -4 17 -14 32 -26 36 -19 6 -20 8 -5 31 11 16
26 24 45 24 16 0 29 -4 29 -10z m256 -17 c-10 -10 -19 5 -10 18 6 11 8 11 12
0 2 -7 1 -15 -2 -18z m-56 -48 c0 -8 -4 -15 -10 -15 -5 0 -10 7 -10 15 0 8 5
15 10 15 6 0 10 -7 10 -15z m-120 -24 c0 -12 -29 -41 -41 -41 -14 0 -11 17 7
34 17 18 34 21 34 7z m130 -61 c0 -23 0 -23 33 -11 21 8 29 5 54 -22 39 -44
80 -162 63 -182 -11 -13 -15 -12 -26 11 -8 14 -14 43 -14 63 0 47 -26 87 -46
70 -7 -6 -20 -9 -28 -6 -11 4 -11 1 -2 -18 7 -15 19 -23 31 -22 12 1 21 -5 23
-18 4 -16 2 -17 -10 -7 -16 13 -28 7 -28 -16 0 -38 -92 -148 -150 -181 -23
-13 -24 -13 -11 2 12 15 10 21 -12 50 -14 18 -28 54 -32 80 -4 26 -11 47 -16
47 -5 0 -9 8 -9 18 0 19 96 122 115 122 6 0 20 9 30 20 10 11 22 20 27 20 4 0
8 -9 8 -20z m-220 -71 c0 -11 -13 -34 -29 -50 -33 -33 -90 -40 -111 -14 -7 8
-19 15 -26 15 -8 0 -14 10 -14 25 0 26 14 33 25 15 10 -16 97 -1 119 21 23 21
36 16 36 -12z m45 -8 c3 -5 1 -12 -5 -16 -5 -3 -10 1 -10 9 0 18 6 21 15 7z
m-209 -166 c10 -8 14 -15 7 -15 -19 0 -43 11 -43 21 0 13 14 11 36 -6z m481
-55 c-6 -16 -21 -33 -33 -39 -20 -9 -22 -6 -26 19 -5 36 15 59 46 53 21 -4 23
-8 13 -33z m-571 -76 c-9 -24 -23 -16 -30 17 -4 20 0 41 12 62 l17 32 3 -49
c2 -27 1 -55 -2 -62z m244 -5 c48 -25 52 -30 57 -83 2 -23 5 -50 6 -60 1 -14
-7 -22 -30 -29 -19 -6 -33 -17 -33 -25 0 -13 -3 -13 -12 -4 -9 9 -9 15 -3 20
6 4 11 18 10 33 0 18 -5 25 -19 25 -10 -1 -23 7 -30 17 -9 15 -7 21 7 31 21
16 22 36 2 36 -10 0 -15 10 -15 30 0 36 7 37 60 9z m310 12 c0 -21 -46 -63
-93 -85 -55 -27 -63 -27 -53 0 4 10 13 14 26 11 11 -3 23 1 28 7 4 7 17 18 29
25 12 6 25 20 28 31 6 19 35 29 35 11z m130 -23 c1 -18 3 -57 6 -86 5 -44 3
-56 -13 -67 -10 -9 -13 -14 -5 -15 6 0 12 -6 12 -14 0 -8 5 -18 11 -21 12 -8
49 23 49 41 0 25 31 2 37 -27 6 -29 35 -40 48 -19 3 6 14 10 23 10 14 -1 13
-4 -6 -20 -26 -22 -21 -44 9 -35 14 5 19 2 19 -13 0 -15 -9 -21 -34 -26 -18
-4 -40 -4 -49 0 -10 3 -18 -2 -22 -16 -5 -16 -10 -18 -20 -10 -15 12 -45 3
-62 -19 -11 -14 -12 -14 -13 2 0 14 -4 16 -19 7 -27 -14 -27 -14 -23 26 4 33
2 36 -16 32 -15 -4 -19 -2 -15 9 5 12 1 14 -16 8 -20 -6 -21 -5 -10 14 11 17
10 26 -8 61 -22 39 -22 40 -2 40 14 0 25 13 39 46 12 27 28 48 40 51 15 4 20
14 20 39 0 19 5 34 10 34 6 0 10 -15 10 -32z m-500 -45 c0 -13 -3 -13 -15 -3
-8 7 -12 16 -9 21 8 13 24 1 24 -18z m351 -76 c-17 -17 -22 -2 -9 29 11 28 12
29 16 5 2 -13 -1 -28 -7 -34z m-220 -71 c-14 -16 -51 -28 -51 -16 0 13 55 50
58 39 2 -5 -1 -16 -7 -23z m-369 -51 c3 -47 0 -53 -21 -32 -10 10 -16 8 -31
-10 -16 -20 -40 -31 -40 -18 0 16 26 55 37 55 7 0 19 11 25 25 17 37 26 31 30
-20z m1073 -45 c4 -6 4 -18 1 -26 -5 -12 -9 -12 -25 -2 -17 10 -24 9 -46 -12
-26 -24 -25 -25 -29 22 -2 21 87 37 99 18z m-1155 -70 c0 -5 -4 -10 -10 -10
-5 0 -10 5 -10 10 0 6 5 10 10 10 6 0 10 -4 10 -10z m1153 -250 c3 -11 1 -22
-3 -25 -10 -6 -40 33 -40 53 0 20 36 -3 43 -28z m517 -15 c0 -8 -4 -15 -10
-15 -5 0 -10 7 -10 15 0 8 5 15 10 15 6 0 10 -7 10 -15z m-329 -31 c6 -8 17
-14 23 -14 12 0 76 -77 76 -92 0 -4 -8 -8 -18 -8 -10 0 -23 -5 -29 -11 -8 -8
-13 -6 -17 7 -11 33 -73 67 -122 67 -46 0 -54 10 -34 46 6 13 17 17 33 14 14
-3 27 0 31 5 8 13 42 4 57 -14z m379 -4 c0 -5 -4 -10 -10 -10 -5 0 -10 5 -10
10 0 6 5 10 10 10 6 0 10 -4 10 -10z m310 0 c0 -5 -4 -10 -10 -10 -5 0 -10 5
-10 10 0 6 5 10 10 10 6 0 10 -4 10 -10z m-443 -36 c-9 -10 -38 16 -31 28 4 6
13 4 22 -6 9 -8 13 -19 9 -22z m-47 20 c0 -3 -7 -12 -15 -20 -13 -14 -15 -13
-15 5 0 12 6 21 15 21 8 0 15 -3 15 -6z m-440 -14 c0 -5 -4 -10 -10 -10 -5 0
-10 5 -10 10 0 6 5 10 10 10 6 0 10 -4 10 -10z m40 -10 c6 -11 8 -20 6 -20 -3
0 -10 9 -16 20 -6 11 -8 20 -6 20 3 0 10 -9 16 -20z m560 -16 c0 -8 -4 -12
-10 -9 -5 3 -10 10 -10 16 0 5 5 9 10 9 6 0 10 -7 10 -16z m-55 -137 c4 -9 20
-24 36 -33 16 -8 27 -19 24 -25 -9 -14 -39 10 -81 65 -20 25 -43 46 -52 46
-12 0 -12 3 -1 16 12 14 16 12 41 -18 15 -18 30 -41 33 -51z m55 23 c0 -5 8
-10 17 -10 9 0 14 -3 10 -6 -8 -8 -47 5 -47 17 0 5 5 9 10 9 6 0 10 -4 10 -10z
m-141 -9 c15 -10 7 -31 -13 -31 -17 0 42 -64 66 -73 11 -4 15 -12 12 -22 -6
-15 3 -25 96 -108 36 -32 50 -30 26 4 -18 26 -6 49 25 49 33 0 56 -76 32 -109
-12 -19 -12 -21 1 -21 15 0 15 -9 2 -81 -2 -10 4 -15 18 -15 15 1 22 -6 24
-22 4 -25 -14 -53 -32 -51 -24 3 -56 -14 -56 -29 0 -8 -2 -13 -5 -10 -11 11 7
58 22 58 12 0 13 3 4 14 -13 16 -4 69 10 60 5 -3 9 5 9 17 0 17 -3 19 -14 10
-11 -9 -18 -6 -34 14 -12 14 -22 31 -25 38 -3 9 -8 9 -20 -1 -9 -8 -21 -11
-27 -7 -8 5 -6 11 6 19 15 12 14 15 -15 35 -26 19 -30 26 -20 37 16 19 3 30
-16 14 -13 -11 -19 -9 -38 9 -13 11 -29 21 -35 21 -7 0 -12 6 -12 13 0 8 -18
22 -40 32 -40 18 -52 35 -25 35 8 0 15 5 15 11 0 6 -9 9 -20 6 -16 -4 -20 0
-20 23 0 31 22 55 44 47 8 -3 17 1 20 9 6 16 15 17 35 5z m41 -17 c0 -8 -4
-12 -10 -9 -5 3 -10 10 -10 16 0 5 5 9 10 9 6 0 10 -7 10 -16z m390 -4 c0 -5
-2 -10 -4 -10 -3 0 -8 5 -11 10 -3 6 -1 10 4 10 6 0 11 -4 11 -10z m-206 -6
c24 -9 10 -22 -19 -17 -13 3 -22 9 -19 14 6 11 16 11 38 3z m46 -29 c10 -12
10 -15 -4 -15 -9 0 -16 7 -16 15 0 8 2 15 4 15 2 0 9 -7 16 -15z m-40 -35 c0
-5 -4 -10 -9 -10 -6 0 -13 5 -16 10 -3 6 1 10 9 10 9 0 16 -4 16 -10z m-55
-52 c0 -18 -56 -23 -66 -6 -5 7 -9 20 -9 29 0 15 4 15 38 4 20 -7 37 -19 37
-27z m155 -51 c0 -20 -25 1 -28 24 -2 23 -2 23 13 5 8 -11 15 -24 15 -29z m55
-27 c3 -5 1 -10 -4 -10 -6 0 -11 5 -11 10 0 6 2 10 4 10 3 0 8 -4 11 -10z
m-805 -15 c21 -25 -2 -42 -36 -26 -21 9 -24 14 -14 26 16 19 34 19 50 0z m753
-7 c9 -32 -2 -40 -25 -19 -21 20 -17 41 6 41 8 0 16 -10 19 -22z m-381 -84
c43 -22 23 -41 -26 -24 -35 11 -43 20 -29 33 10 10 21 9 55 -9z m-262 -44 c0
-11 -7 -20 -15 -20 -8 0 -15 -9 -15 -20 0 -11 -2 -20 -5 -20 -5 0 -50 26 -65
38 -8 6 25 22 48 22 12 0 22 5 22 10 0 6 7 10 15 10 8 0 15 -9 15 -20z m976
-103 c4 -4 26 -7 49 -7 48 0 66 -15 70 -57 3 -41 20 -79 29 -65 4 7 12 12 18
12 6 0 4 -8 -5 -18 -10 -10 -17 -26 -17 -35 0 -9 -10 -36 -22 -61 -23 -49 -48
-52 -48 -6 0 27 -20 52 -52 63 -11 4 -17 15 -15 29 1 15 -4 23 -18 26 -27 6
-45 22 -56 49 -5 13 -15 23 -24 23 -10 0 -15 10 -15 30 0 29 1 30 50 27 27 -2
53 -6 56 -10z m384 -9 c0 -18 -2 -20 -9 -8 -6 8 -7 18 -5 22 9 14 14 9 14 -14z
m205 -28 c3 -5 -1 -10 -9 -10 -9 0 -16 5 -16 10 0 6 4 10 9 10 6 0 13 -4 16
-10z m165 -19 c0 -6 -4 -13 -10 -16 -5 -3 -10 1 -10 9 0 9 5 16 10 16 6 0 10
-4 10 -9z m-250 -83 c0 -12 -6 -9 -26 13 -19 22 -19 22 4 8 12 -8 22 -17 22
-21z m-1695 -90 c-1 -18 -5 -46 -10 -62 l-8 -29 -13 24 c-18 32 -17 50 2 77
21 31 31 27 29 -10z m1715 12 c0 -5 -4 -10 -10 -10 -5 0 -10 5 -10 10 0 6 5
10 10 10 6 0 10 -4 10 -10z m-320 -28 c0 -9 -44 -32 -60 -32 -6 0 -10 5 -10
10 0 6 9 10 20 10 11 0 20 5 20 10 0 6 7 10 15 10 8 0 15 -4 15 -8z m160 -48
c0 -21 -17 -17 -23 5 -3 14 -1 18 9 14 8 -3 14 -11 14 -19z m-340 -5 c14 -8
27 -15 29 -17 3 -1 -4 -8 -14 -16 -16 -12 -17 -16 -6 -29 7 -9 10 -21 6 -27
-9 -14 -68 -13 -83 2 -9 9 -15 9 -24 0 -17 -17 -38 -15 -57 6 -9 10 -31 25
-48 33 -18 7 -33 17 -33 21 0 14 29 8 70 -13 50 -26 71 -15 40 21 -11 13 -20
26 -20 30 0 13 114 4 140 -11z m160 -14 c0 -34 -17 -52 -37 -39 -10 6 -18 17
-18 25 0 8 -7 19 -15 26 -12 10 -7 12 27 10 36 -2 43 -5 43 -22z m-565 -29
c13 5 16 3 13 -7 -7 -21 -87 -23 -95 -3 -9 24 17 35 42 18 12 -8 30 -11 40 -8z
m469 15 c3 -4 -1 -17 -8 -27 -13 -17 -14 -17 -13 9 2 27 11 35 21 18z m-1599
-49 c-3 -3 -11 0 -18 7 -9 10 -8 11 6 5 10 -3 15 -9 12 -12z m575 -8 l25 -15
-25 7 c-14 3 -29 10 -34 15 -16 14 6 10 34 -7z m1390 -4 c0 -5 -4 -10 -10 -10
-5 0 -10 5 -10 10 0 6 5 10 10 10 6 0 10 -4 10 -10z m-1020 -13 c0 -7 -12 -14
-27 -15 -27 -1 -27 -1 -9 13 24 18 36 19 36 2z m712 -9 c-7 -7 -12 -8 -12 -2
0 14 12 26 19 19 2 -3 -1 -11 -7 -17z m-1714 -49 c23 -22 42 -43 42 -45 0 -9
-46 20 -83 52 -27 25 -32 34 -20 34 10 0 37 -19 61 -41z m1402 -1 c0 -6 -7 -7
-16 -4 -9 3 -20 6 -25 6 -5 0 -9 4 -9 9 0 4 11 6 25 3 14 -2 25 -9 25 -14z
m290 2 c0 -5 -4 -10 -10 -10 -5 0 -10 5 -10 10 0 6 5 10 10 10 6 0 10 -4 10
-10z m-203 -16 c-3 -3 -12 -4 -19 -1 -8 3 -5 6 6 6 11 1 17 -2 13 -5z m368
-25 c11 -17 -1 -21 -15 -4 -8 9 -8 15 -2 15 6 0 14 -5 17 -11z m-1770 -29 c3
-6 -1 -7 -9 -4 -18 7 -21 14 -7 14 6 0 13 -4 16 -10z m1500 -36 c-22 -19 -47
-42 -56 -50 -15 -14 -39 -19 -39 -9 0 8 68 67 99 86 42 26 39 10 -4 -27z
m-265 26 c0 -5 -12 -10 -27 -10 -22 0 -25 2 -13 10 20 13 40 13 40 0z"/>
<path d="M668 2539 c-10 -5 -18 -14 -18 -19 0 -17 26 -11 45 10 20 22 4 28
-27 9z"/>
<path d="M900 2060 c0 -5 5 -10 10 -10 6 0 10 5 10 10 0 6 -4 10 -10 10 -5 0
-10 -4 -10 -10z"/>
<path d="M2400 742 c0 -5 7 -13 16 -16 10 -4 14 -1 12 6 -5 15 -28 23 -28 10z"/>
<path d="M1787 3469 c-17 -19 -17 -20 5 -28 29 -11 42 0 33 28 -8 25 -15 25
-38 0z"/>
<path d="M1855 3459 c-9 -28 2 -36 27 -20 17 11 22 11 29 0 4 -8 11 -10 16 -5
7 6 -21 30 -37 31 -3 0 -10 4 -17 8 -7 4 -14 -1 -18 -14z"/>
<path d="M1458 3443 c-11 -3 -18 -14 -18 -27 0 -13 -10 -36 -22 -51 -21 -26
-22 -27 -36 -9 -14 18 -14 18 -8 1 15 -45 18 -67 7 -67 -6 0 -11 5 -11 10 0 6
-7 10 -15 10 -10 0 -13 10 -11 36 1 19 -1 37 -5 39 -8 6 -29 -73 -29 -110 0
-17 -5 -25 -12 -22 -7 2 -13 19 -13 38 0 25 -5 35 -19 37 -22 5 -39 -11 -41
-38 -2 -27 14 -26 24 2 4 12 10 17 14 11 4 -6 0 -30 -8 -53 -19 -55 -19 -63 4
-55 11 3 22 1 26 -5 10 -16 46 6 109 68 18 17 40 32 50 32 9 0 16 7 16 15 0 9
16 25 35 36 19 11 37 29 40 40 4 12 13 18 21 15 9 -3 14 1 14 13 0 22 -20 32
-49 24 -12 -3 -21 -1 -21 6 0 11 -11 12 -42 4z m56 -41 c5 -8 -45 -52 -58 -52
-7 0 6 32 18 47 13 14 33 17 40 5z"/>
<path d="M1597 3412 c-21 -47 -21 -62 -3 -62 28 0 46 12 46 30 0 11 5 22 10
25 13 8 -6 45 -23 45 -7 0 -21 -17 -30 -38z"/>
<path d="M1980 3429 c-9 -15 -8 -24 1 -35 14 -17 19 -17 42 0 16 12 16 17 5
35 -16 27 -34 27 -48 0z"/>
<path d="M2041 3399 c-8 -18 -22 -34 -32 -36 -9 -3 -20 -16 -23 -29 -10 -37
-29 -17 -23 22 7 41 2 42 -29 9 -24 -26 -54 -25 -54 1 0 8 -9 14 -19 14 -11 0
-21 5 -23 11 -6 17 -59 -8 -65 -31 -3 -11 -9 -18 -13 -15 -5 3 -11 1 -15 -5
-3 -5 -17 -10 -31 -10 -15 0 -24 -6 -24 -16 0 -8 5 -12 11 -8 6 3 3 -5 -6 -20
-10 -14 -21 -26 -26 -26 -4 0 -7 -8 -6 -18 1 -16 8 -17 66 -11 37 4 109 5 161
3 63 -2 96 0 101 8 5 8 15 8 38 -2 35 -14 47 -9 38 14 -4 9 -13 13 -22 10 -13
-5 -13 0 4 30 11 20 16 36 11 36 -5 0 -7 7 -4 15 8 20 22 19 27 -2 4 -17 5
-16 12 1 6 13 3 23 -9 32 -12 8 -16 19 -11 33 11 34 -18 25 -34 -10z m-281
-89 c0 -5 -2 -10 -4 -10 -3 0 -8 5 -11 10 -3 6 -1 10 4 10 6 0 11 -4 11 -10z"/>
<path d="M2155 3420 c3 -5 10 -10 16 -10 5 0 9 5 9 10 0 6 -7 10 -16 10 -8 0
-12 -4 -9 -10z"/>
<path d="M1680 3391 c0 -6 5 -13 10 -16 6 -3 10 1 10 9 0 9 -4 16 -10 16 -5 0
-10 -4 -10 -9z"/>
<path d="M2116 3391 c-4 -7 -5 -15 -2 -18 9 -9 19 4 14 18 -4 11 -6 11 -12 0z"/>
<path d="M2168 3373 c0 -5 -2 -12 -3 -18 -2 -5 -3 -15 -4 -21 0 -7 -17 -19
-36 -28 -22 -11 -35 -24 -35 -36 0 -25 32 -26 102 -3 41 13 53 22 65 50 11 27
11 38 2 49 -6 7 -15 11 -21 8 -5 -4 -5 -10 1 -18 7 -8 1 -16 -20 -28 -30 -18
-40 -9 -16 14 11 10 12 15 1 25 -14 14 -33 17 -36 6z"/>
<path d="M1290 3340 c0 -5 5 -10 10 -10 6 0 10 5 10 10 0 6 -4 10 -10 10 -5 0
-10 -4 -10 -10z"/>
<path d="M2580 3226 c0 -8 81 -58 86 -53 10 9 -4 25 -38 41 -30 15 -48 20 -48
12z"/>
<path d="M1235 3150 c-3 -5 -1 -10 4 -10 6 0 11 5 11 10 0 6 -2 10 -4 10 -3 0
-8 -4 -11 -10z"/>
<path d="M2791 3144 c0 -11 3 -14 6 -6 3 7 2 16 -1 19 -3 4 -6 -2 -5 -13z"/>
<path d="M2775 3100 c-3 -5 1 -10 9 -10 9 0 16 5 16 10 0 6 -4 10 -9 10 -6 0
-13 -4 -16 -10z"/>
<path d="M2528 3084 c-4 -4 -3 -15 3 -25 14 -27 -6 -24 -25 3 -12 17 -18 20
-28 10 -7 -7 -20 -12 -30 -12 -10 0 -24 -12 -32 -28 -8 -15 -23 -35 -34 -45
-20 -18 -21 -18 -31 0 -10 16 -10 16 -11 -5 0 -12 -6 -25 -14 -28 -18 -7 -40
-59 -31 -73 3 -6 17 -11 29 -11 17 0 25 -7 28 -23 4 -20 0 -24 -21 -24 -45 -1
-85 -15 -109 -36 -18 -17 -26 -19 -41 -10 -15 9 -19 6 -28 -18 -6 -16 -17 -29
-24 -29 -8 0 -7 6 4 18 10 10 17 34 17 53 0 19 5 40 11 46 8 8 4 16 -16 29
-27 18 -28 18 -51 -9 -19 -23 -22 -34 -17 -80 4 -42 2 -55 -12 -67 -14 -12
-18 -12 -25 0 -5 8 -12 11 -16 7 -4 -4 1 -13 11 -21 16 -11 17 -19 8 -47 -5
-19 -15 -33 -22 -31 -7 1 -20 -3 -27 -9 -11 -9 -18 -9 -26 -1 -7 7 -22 12 -34
12 -12 0 -24 6 -27 13 -3 8 -13 3 -30 -15 -14 -16 -31 -28 -37 -28 -5 0 -10
-4 -10 -10 0 -5 -9 -19 -20 -30 -32 -32 -26 -73 20 -119 25 -25 46 -38 55 -35
8 4 15 2 15 -4 0 -17 -54 -22 -63 -5 -8 12 -12 11 -32 -7 -22 -21 -24 -21 -34
-3 -10 17 -10 17 -11 1 0 -10 -4 -18 -9 -18 -21 0 -91 -55 -91 -72 0 -10 -7
-18 -15 -18 -8 0 -15 -4 -15 -10 0 -5 -5 -10 -11 -10 -6 0 -8 8 -4 20 6 18 5
19 -22 5 -34 -18 -59 -19 -67 -2 -3 6 -3 2 -1 -9 6 -24 -14 -37 -40 -28 -10 4
-15 0 -15 -13 0 -12 -23 -37 -59 -64 -45 -34 -61 -53 -70 -86 -7 -23 -11 -50
-9 -59 4 -24 164 -108 243 -129 33 -8 125 -20 205 -25 209 -15 319 -45 467
-130 37 -21 86 -49 108 -61 22 -12 81 -63 132 -115 75 -76 99 -108 133 -178
22 -47 44 -86 48 -86 10 0 40 101 52 175 16 94 5 319 -18 386 -29 82 -49 117
-73 124 -11 4 -18 13 -16 20 8 18 -13 35 -44 35 -18 0 -28 6 -32 20 -8 32 -57
26 -89 -10 -28 -32 -62 -41 -51 -15 7 21 -25 55 -52 55 -22 0 -38 20 -40 50 0
8 -7 14 -14 12 -7 -1 -15 7 -18 18 -3 11 -10 17 -16 13 -7 -4 -8 17 -3 66 5
61 4 72 -10 78 -9 3 -25 1 -35 -5 -15 -10 -17 -9 -13 3 7 18 -17 20 -33 4 -8
-8 -16 -6 -30 8 -32 32 -72 53 -78 43 -9 -15 -45 -12 -45 4 0 8 -7 16 -14 19
-13 5 -13 10 0 37 17 33 41 50 72 50 11 0 31 10 46 21 23 18 31 20 50 10 12
-7 39 -11 60 -9 37 3 40 1 62 -41 13 -24 42 -63 64 -87 22 -24 40 -49 40 -55
0 -6 10 1 23 17 12 16 21 32 19 37 -1 5 3 7 10 5 7 -3 15 -16 18 -29 3 -13 15
-43 28 -66 12 -23 22 -49 22 -58 0 -8 4 -15 9 -15 5 0 7 8 4 18 -6 23 42 75
64 70 12 -2 21 -20 29 -57 14 -60 46 -101 81 -101 13 0 33 -9 45 -20 14 -13
25 -16 33 -10 14 12 35 -7 35 -32 0 -10 -10 -47 -21 -83 -19 -56 -20 -70 -9
-93 12 -27 63 -194 80 -262 20 -84 61 -218 76 -253 13 -29 26 -40 56 -49 35
-10 40 -10 54 10 8 12 23 22 33 22 10 0 26 15 36 34 10 19 23 32 29 30 6 -2
29 14 50 37 32 33 37 42 25 50 -10 6 -7 9 14 9 24 0 27 3 22 20 -4 11 1 34 9
52 20 39 20 48 0 48 -8 0 -12 4 -9 10 11 18 -15 50 -43 51 -39 1 -65 13 -68
32 -3 25 27 31 33 6 6 -20 11 -21 76 -16 43 3 72 10 78 18 4 7 11 10 15 6 4
-4 -1 -16 -11 -27 -16 -17 -16 -24 -4 -62 9 -28 14 -100 15 -211 0 -113 4
-171 12 -179 9 -9 12 -7 13 8 1 10 1 25 0 32 -1 6 7 12 18 12 15 0 19 7 19 36
0 22 8 44 21 58 21 22 21 23 3 39 -10 9 -24 17 -30 17 -7 0 -12 5 -12 10 0 6
8 10 18 10 16 0 22 29 13 65 -2 6 -2 23 -1 38 1 15 -3 34 -10 41 -8 11 -4 16
19 24 25 9 30 16 29 41 -1 17 -5 31 -10 31 -4 0 -8 5 -8 10 0 6 5 10 11 10 13
0 38 29 39 44 0 5 -8 2 -17 -7 -16 -13 -21 -14 -37 -2 -15 11 -16 15 -5 19 48
15 52 17 42 27 -7 7 -23 4 -49 -8 -51 -23 -51 -23 -35 -32 11 -7 9 -11 -7 -20
-18 -9 -23 -8 -32 8 -14 27 -14 27 29 45 22 8 43 22 48 30 4 7 17 15 27 17 11
2 21 10 24 18 3 10 -2 12 -20 8 -37 -10 -100 11 -96 31 2 9 9 17 16 16 6 -1
26 -2 43 -3 25 -1 30 -4 24 -18 -5 -14 -4 -15 6 -6 10 10 9 16 -4 31 -9 10
-17 26 -17 35 0 12 -9 17 -27 17 -27 1 -27 1 -9 15 10 8 24 16 30 19 7 3 6 8
-4 15 -13 9 -12 13 8 31 28 26 28 39 0 38 -51 -1 -77 -9 -71 -24 3 -9 -2 -14
-16 -14 -25 0 -27 13 -6 34 8 8 15 20 15 26 0 7 6 10 14 7 8 -3 20 1 26 9 10
11 10 14 -1 14 -23 1 -56 30 -43 38 17 10 -2 52 -23 53 -10 0 3 7 30 15 30 9
47 20 47 31 0 13 -2 14 -17 2 -13 -11 -17 -11 -20 -1 -3 6 -14 12 -25 12 -15
0 -18 3 -11 13 5 6 11 30 12 53 2 40 1 41 -34 42 -19 1 -35 -3 -35 -9 0 -6 -4
-8 -9 -5 -5 3 -7 15 -4 26 3 11 10 17 15 14 11 -7 28 13 28 33 0 7 -7 10 -15
7 -21 -8 -19 6 3 22 15 12 13 13 -21 12 -42 -1 -54 6 -39 24 8 10 1 12 -35 9
-32 -2 -43 0 -39 8 4 6 15 11 25 11 10 0 24 6 31 14 6 8 21 16 32 18 12 2 23
9 26 17 3 10 -2 11 -18 6 -19 -6 -22 -4 -17 9 4 9 2 16 -4 16 -5 0 -12 -7 -15
-15 -10 -25 -24 -17 -24 14 0 37 -17 49 -35 25 -13 -18 -14 -18 -15 -1 0 9 5
17 10 17 6 0 10 9 10 20 0 19 -13 24 -72 23 -22 0 -22 6 -2 35 14 21 14 22 -5
22 -12 0 -20 6 -19 13 2 6 -5 11 -14 9 -10 -2 -18 2 -18 8 0 5 -4 10 -10 10
-5 0 -10 -9 -10 -19 0 -11 -4 -23 -10 -26 -12 -8 -13 27 -1 40 5 6 5 20 0 33
l-9 23 -29 -20 -29 -21 -5 22 c-8 30 1 41 28 34 17 -4 28 0 39 16 9 12 16 28
16 35 0 16 -37 17 -42 1 -2 -6 -26 -12 -54 -12 -43 -1 -49 2 -52 20 -3 20 -6
21 -43 12 -21 -6 -39 -14 -39 -19 0 -18 -37 -8 -58 16 -12 14 -28 25 -36 25
-7 0 -19 6 -26 14 -6 8 -18 12 -26 9 -10 -4 -17 2 -21 16 -3 11 -13 21 -22 21
-9 0 -25 3 -36 6 -11 3 -24 2 -27 -2z m292 -134 c0 -5 -6 -10 -14 -10 -8 0
-16 -5 -18 -12 -2 -6 -10 -8 -17 -4 -9 6 -9 11 0 22 13 16 49 19 49 4z m50
-36 c0 -8 -4 -12 -10 -9 -5 3 -10 10 -10 16 0 5 5 9 10 9 6 0 10 -7 10 -16z
m-503 -26 c-3 -7 -5 -2 -5 12 0 14 2 19 5 13 2 -7 2 -19 0 -25z m113 24 c0
-13 -12 -22 -22 -16 -10 6 -1 24 13 24 5 0 9 -4 9 -8z m50 -95 c9 -42 4 -50
-22 -36 -14 8 -25 6 -43 -5 -31 -20 -55 -20 -55 -1 0 8 4 15 9 15 16 0 61 46
61 62 0 46 37 20 50 -35z m170 8 c-7 -9 -15 -13 -18 -10 -3 2 1 11 8 20 7 9
15 13 18 10 3 -2 -1 -11 -8 -20z m260 21 c0 -8 -31 -36 -41 -36 -5 0 -9 5 -9
12 0 6 3 9 6 5 4 -3 13 0 21 8 14 15 23 19 23 11z m16 -111 c-3 -9 -11 -13
-16 -10 -8 5 -7 11 1 21 14 18 24 11 15 -11z m174 -75 c0 -5 -5 -10 -11 -10
-5 0 -7 5 -4 10 3 6 8 10 11 10 2 0 4 -4 4 -10z m30 -170 c0 -5 -4 -10 -10
-10 -5 0 -10 5 -10 10 0 6 5 10 10 10 6 0 10 -4 10 -10z m-760 -60 c0 -5 -9
-10 -19 -10 -11 0 -23 5 -26 10 -4 6 5 10 19 10 14 0 26 -4 26 -10z m822 -6
c3 -3 -5 -17 -18 -31 -19 -20 -27 -24 -36 -15 -9 9 -8 12 4 12 9 0 18 9 21 20
5 19 18 26 29 14z m-1286 -30 c-3 -9 -6 -18 -6 -20 0 -2 -7 -4 -15 -4 -18 0
-20 26 -2 33 23 10 29 7 23 -9z m1129 6 c3 -5 1 -10 -4 -10 -6 0 -11 5 -11 10
0 6 2 10 4 10 3 0 8 -4 11 -10z m225 -160 c0 -5 -4 -10 -9 -10 -5 0 -12 -8
-14 -17 -3 -11 -5 -7 -6 10 -1 18 4 27 14 27 8 0 15 -4 15 -10z m-20 -100 c0
-5 -7 -10 -15 -10 -8 0 -15 5 -15 10 0 6 7 10 15 10 8 0 15 -4 15 -10z m30
-100 c0 -5 -2 -10 -4 -10 -3 0 -8 5 -11 10 -3 6 -1 10 4 10 6 0 11 -4 11 -10z
m50 -20 c0 -5 -2 -10 -4 -10 -3 0 -8 5 -11 10 -3 6 -1 10 4 10 6 0 11 -4 11
-10z m-73 -36 c-3 -3 -12 -4 -19 -1 -8 3 -5 6 6 6 11 1 17 -2 13 -5z m-52 -24
c-3 -5 -11 -10 -16 -10 -6 0 -7 5 -4 10 3 6 11 10 16 10 6 0 7 -4 4 -10z m39
-56 c9 -23 8 -24 -21 -23 -16 0 -22 3 -15 6 6 2 12 11 12 19 0 19 16 18 24 -2z
m101 -34 c3 -5 1 -10 -4 -10 -6 0 -11 5 -11 10 0 6 2 10 4 10 3 0 8 -4 11 -10z
m-35 -10 c0 -5 -2 -10 -4 -10 -3 0 -8 5 -11 10 -3 6 -1 10 4 10 6 0 11 -4 11
-10z"/>
<path d="M2878 3028 c6 -6 18 -8 28 -6 14 3 12 5 -9 10 -19 3 -25 2 -19 -4z"/>
<path d="M2935 3009 c-11 -17 1 -21 15 -4 8 9 8 15 2 15 -6 0 -14 -5 -17 -11z"/>
<path d="M2097 2953 c-12 -11 -8 -23 8 -23 8 0 15 -8 15 -17 0 -11 3 -14 10
-7 5 5 7 19 4 32 -6 21 -24 29 -37 15z"/>
<path d="M2011 2898 c-20 -45 -19 -58 4 -58 18 0 23 9 31 58 9 56 -9 55 -35 0z"/>
<path d="M3048 2903 c7 -3 16 -2 19 1 4 3 -2 6 -13 5 -11 0 -14 -3 -6 -6z"/>
<path d="M3270 2591 c0 -5 5 -13 10 -16 6 -3 10 -2 10 4 0 5 -4 13 -10 16 -5
3 -10 2 -10 -4z"/>
<path d="M2217 2400 c-3 -11 -2 -22 3 -25 11 -7 33 22 25 35 -10 16 -22 12
-28 -10z"/>
<path d="M2328 2278 c9 -9 15 -9 24 0 9 9 7 12 -12 12 -19 0 -21 -3 -12 -12z"/>
<path d="M3377 2273 c-10 -10 -8 -53 2 -53 5 0 11 8 15 18 3 9 9 23 12 30 6
12 -18 17 -29 5z"/>
<path d="M1650 1800 c-15 -28 -4 -40 14 -15 16 22 49 14 40 -10 -8 -19 13 -20
32 -1 7 8 19 16 26 19 23 8 2 17 -50 24 -45 5 -51 3 -62 -17z"/>
<path d="M1823 1796 c3 -8 -1 -17 -10 -20 -9 -4 -13 -9 -9 -13 8 -9 47 28 40
38 -9 15 -27 10 -21 -5z"/>
<path d="M1850 1765 c0 -9 7 -18 15 -21 8 -4 15 -12 15 -20 0 -8 5 -14 10 -14
13 0 13 12 0 44 -10 28 -40 36 -40 11z"/>
<path d="M2870 475 c0 -8 7 -15 16 -15 14 0 14 3 4 15 -7 8 -14 15 -16 15 -2
0 -4 -7 -4 -15z"/>
<path d="M1408 453 c-23 -6 -34 -49 -18 -68 7 -8 15 -15 19 -15 9 0 31 51 31
72 0 18 -2 19 -32 11z"/>
<path d="M1580 413 c0 -29 -70 -101 -113 -117 -94 -33 -148 -46 -194 -47 -75
-2 -14 -17 72 -18 76 -1 118 -16 78 -27 -51 -14 -10 -37 57 -33 21 2 42 0 46
-4 12 -11 34 -8 32 5 -2 6 6 14 17 16 11 2 23 9 26 14 4 6 41 10 83 11 66 1
76 3 76 19 0 23 42 25 60 3 14 -17 40 -20 40 -5 0 22 -53 92 -90 119 -22 16
-57 32 -77 36 -21 4 -41 11 -44 16 -3 5 -20 13 -37 18 -26 8 -32 7 -32 -6z
m96 -79 l25 -17 -32 -33 c-32 -33 -94 -54 -157 -54 l-27 0 25 13 c14 7 41 19
60 26 69 27 100 43 100 53 0 6 -17 7 -42 3 -39 -7 -41 -6 -29 9 17 21 45 20
77 0z"/>
<path d="M2600 300 c0 -5 4 -10 9 -10 5 0 12 -8 14 -17 3 -11 5 -7 6 10 1 18
-4 27 -14 27 -8 0 -15 -4 -15 -10z"/>
<path d="M2443 270 c-3 -11 -12 -20 -19 -20 -15 0 -17 -10 -8 -34 8 -21 24
-20 24 2 0 9 9 23 20 30 11 7 20 19 20 27 0 22 -31 18 -37 -5z"/>
<path d="M1930 250 c-13 -9 -13 -11 0 -20 21 -14 46 -12 59 4 9 11 7 15 -11
20 -30 8 -30 7 -48 -4z"/>
<path d="M2530 250 c0 -5 4 -10 9 -10 6 0 13 5 16 10 3 6 -1 10 -9 10 -9 0
-16 -4 -16 -10z"/>
<path d="M2215 207 c-4 -10 -5 -21 -1 -24 10 -10 18 4 13 24 -4 17 -4 17 -12
0z"/>
<path d="M2446 194 c-4 -10 -1 -14 6 -12 15 5 23 28 10 28 -5 0 -13 -7 -16
-16z"/>
<path d="M2114 186 c-3 -8 0 -25 7 -38 l13 -23 7 25 c4 14 7 31 8 38 1 17 -28
15 -35 -2z"/>
<path d="M2210 151 c0 -12 5 -21 10 -21 6 0 10 6 10 14 0 8 -4 18 -10 21 -5 3
-10 -3 -10 -14z"/>
<path d="M2290 150 c0 -5 5 -10 10 -10 6 0 10 5 10 10 0 6 -4 10 -10 10 -5 0
-10 -4 -10 -10z"/>
<path d="M2030 140 c0 -5 5 -10 11 -10 5 0 7 5 4 10 -3 6 -8 10 -11 10 -2 0
-4 -4 -4 -10z"/>
</g>
</svg>
